:SAMPLES-PER-SECOND 30
:FULLY-SPECIFIED
:DEGREES
180
root  10.1423 36.5251 2.57589 -168.056 -67.8242 -179.648
RightUpLeg  -46.2185 2.55247 2.88661
RightLeg  38.947 -2.46314 -2.42207
RightFoot  -3.88267 -0.321251 4.50247
RightToes  5.82063e-011 0 -3.6325e-017
Spine  45.4348 -2.03706 4.00212
Spine1  -12.7358 0.312826 -1.2795
HEad  -44.3937 -17.1218 11.8719
LeftShoulder1  -0.226877 -0.0932798 16.873
LeftArm  86.5827 -78.443 -168.444
LeftForeArm  144.489 -76.9403 -133.445
LeftHand  -0.947233 1.06546 25.2531
RightShoulder  -0.345673 -0.0233788 -21.1842
RightArm  -88.0934 70.9848 -37.8149
RightForeArm  -0.523662 -6.8801 6.44435
RightHand  0.242033 -8.01858 -11.8651
LeftUpLeg  -44.9972 -12.6792 2.84915
LeftLeg  45.3447 15.3501 16.3884
LeftFoot  -8.33588 0.306312 -9.7151
LeftToes  -1.1369e-010 2.7689e-011 -1.90827e-011
181
root  10.2285 36.835 2.32237 -164.589 -70.4319 178.529
RightUpLeg  -46.9301 3.96049 1.10626
RightLeg  37.149 -3.14445 -2.82418
RightFoot  -2.6473 -0.320252 3.9549
RightToes  5.82063e-011 0 -3.6325e-017
Spine  44.978 -2.21922 4.55258
Spine1  -14.9196 0.284248 -1.55406
HEad  -42.3185 -17.5774 10.7526
LeftShoulder1  -0.221038 -0.0309592 16.8098
LeftArm  92.2476 -78.6245 -175.283
LeftForeArm  145.71 -76.6979 -134.6
LeftHand  -0.931786 1.20793 25.6728
RightShoulder  -0.342568 -0.572845 -23.4218
RightArm  -88.5272 64.7681 -47.6687
RightForeArm  -7.81667 -6.87327 7.05117
RightHand  0.221006 -7.71003 -12.2963
LeftUpLeg  -45.8056 -11.7526 1.94029
LeftLeg  42.9824 16.8193 16.4853
LeftFoot  -6.12172 0.487676 -9.87223
LeftToes  -1.1369e-010 2.7689e-011 -1.90827e-011
182
root  10.3272 36.7266 2.05492 -162.083 -72.6367 176.905
RightUpLeg  -48.4693 5.85579 -0.871966
RightLeg  38.5661 -2.11276 -2.05897
RightFoot  -3.38654 -0.349608 4.72786
RightToes  5.82063e-011 0 -3.6325e-017
Spine  45.1086 -2.26286 4.80619
Spine1  -16.5799 0.355297 -1.58812
HEad  -42.3656 -17.6308 9.7868
LeftShoulder1  -0.184629 0.528044 16.7549
LeftArm  99.9537 -78.3977 176.184
LeftForeArm  146.92 -76.4989 -135.559
LeftHand  -0.927755 1.32539 26.2816
RightShoulder  -0.0872007 -2.83342 -26.4894
RightArm  -90.2201 60.2384 -53.5065
RightForeArm  -13.5274 -6.57366 5.93252
RightHand  0.211774 -7.61446 -12.3314
LeftUpLeg  -47.31 -9.73489 0.39373
LeftLeg  44.3324 17.8705 18.188
LeftFoot  -5.51765 0.548985 -10.1275
LeftToes  -1.1369e-010 2.7689e-011 -1.90827e-011
183
root  10.4451 36.1755 1.7561 -160.983 -74.6409 175.411
RightUpLeg  -50.3139 6.75308 -1.89892
RightLeg  43.0913 -0.979434 -1.28006
RightFoot  -5.82228 -0.313483 5.6708
RightToes  5.82063e-011 0 -3.6325e-017
Spine  45.8763 -2.21249 4.39072
Spine1  -17.432 0.342627 -1.14905
HEad  -43.7837 -17.1065 9.35605
LeftShoulder1  -0.143578 1.20965 16.8152
LeftArm  106.196 -78.0096 169.334
LeftForeArm  147.194 -76.4563 -135.762
LeftHand  -0.927753 1.38171 26.6402
RightShoulder  0.384402 -5.7645 -28.6073
RightArm  -95.8014 58.2284 -58.2197
RightForeArm  -16.5718 -6.14875 3.82927
RightHand  0.209157 -7.64413 -12.0546
LeftUpLeg  -48.9022 -7.9391 -1.1286
LeftLeg  48.6387 17.4578 20.4606
LeftFoot  -7.24432 0.411794 -10.2877
LeftToes  -1.1369e-010 2.7689e-011 -1.90827e-011
184
root  10.5557 35.2045 1.44313 -163.156 -76.7707 175.698
RightUpLeg  -51.706 5.83739 -0.820493
RightLeg  49.7871 -1.02522 -1.6818
RightFoot  -8.9474 -0.176112 5.37108
RightToes  5.82063e-011 0 -3.6325e-017
Spine  47.4182 -2.34756 3.98168
Spine1  -17.7804 0.0910243 -0.493369
HEad  -44.6686 -16.1219 9.37249
LeftShoulder1  -0.131455 1.45075 16.9719
LeftArm  107.893 -78.0006 167.257
LeftForeArm  146.296 -76.6955 -134.738
LeftHand  -0.932738 1.35757 26.6238
RightShoulder  0.720778 -7.71859 -28.7986
RightArm  -105.198 58.8533 -62.5093
RightForeArm  -14.839 -5.80618 1.60095
RightHand  0.199392 -7.52226 -12.1998
LeftUpLeg  -50.0927 -7.48377 -1.50135
LeftLeg  54.7373 15.1436 22.1139
LeftFoot  -10.9499 0.100631 -10.5688
LeftToes  -1.1369e-010 2.7689e-011 -1.90827e-011
185
root  10.6061 33.9049 1.12953 -170.329 -78.84 179.863
RightUpLeg  -52.441 3.84958 1.90873
RightLeg  57.526 -1.52868 -3.04643
RightFoot  -12.2781 -0.0534964 3.88923
RightToes  5.82063e-011 0 -3.6325e-017
Spine  49.1837 -2.72669 4.22077
Spine1  -17.095 -0.28456 -0.225383
HEad  -44.4094 -14.7797 9.59152
LeftShoulder1  -0.148729 1.20012 17.0404
LeftArm  104.254 -78.3942 170.899
LeftForeArm  145.125 -77.0349 -133.242
LeftHand  -0.950385 1.25655 26.4703
RightShoulder  0.675382 -7.71113 -27.5197
RightArm  -114.994 61.6242 -64.8074
RightForeArm  -8.51632 -5.65139 -0.056387
RightHand  0.155989 -6.97428 -13.0465
LeftUpLeg  -50.987 -8.05805 -0.569178
LeftLeg  61.9556 11.5077 22.6985
LeftFoot  -15.2655 -0.282848 -10.9028
LeftToes  -1.1369e-010 2.7689e-011 -1.90827e-011
186
root  10.5572 32.5169 0.789487 178.867 -80.3769 -172.509
RightUpLeg  -52.7938 1.86302 4.84674
RightLeg  65.0017 -1.42937 -3.94894
RightFoot  -15.6656 -0.0151603 2.37889
RightToes  5.82063e-011 0 -3.6325e-017
Spine  50.0395 -2.93593 4.86581
Spine1  -14.5368 -0.37983 -0.572418
HEad  -44.1552 -13.4551 9.76056
LeftShoulder1  -0.173033 0.687265 16.6903
LeftArm  95.5861 -78.6894 -179.839
LeftForeArm  144.693 -77.1686 -132.632
LeftHand  -0.991534 1.02131 26.1457
RightShoulder  0.335271 -5.82812 -25.5632
RightArm  -118.64 65.7066 -62.8306
RightForeArm  -1.98852 -5.74519 -0.121367
RightHand  0.0909694 -6.30819 -13.8299
LeftUpLeg  -51.8411 -8.75844 0.882718
LeftLeg  69.2904 7.80506 22.5632
LeftFoot  -18.8104 -0.603977 -10.9624
LeftToes  -1.1369e-010 2.7689e-011 -1.90827e-011
